<mxfile host="app.diagrams.net" modified="2023-06-18T15:57:04.402Z" agent="Mozilla/5.0 (Windows NT 10.0; Win64; x64) AppleWebKit/537.36 (KHTML, like Gecko) Chrome/114.0.0.0 Safari/537.36" etag="QG04mpW4fdFVdx0vCHWf" version="21.4.0" type="device">
  <diagram name="Page-1" id="LRZ05Uo7-R6V8OTwhh7I">
    <mxGraphModel dx="2074" dy="1124" grid="1" gridSize="10" guides="1" tooltips="1" connect="1" arrows="1" fold="1" page="1" pageScale="1" pageWidth="850" pageHeight="1100" math="0" shadow="0">
      <root>
        <mxCell id="0" />
        <mxCell id="1" parent="0" />
        <mxCell id="GwVYzrCeqbtHM0dImgiu-1" value="" style="rounded=0;whiteSpace=wrap;html=1;" parent="1" vertex="1">
          <mxGeometry x="80" y="120" width="370" height="610" as="geometry" />
        </mxCell>
        <mxCell id="GwVYzrCeqbtHM0dImgiu-2" value="Gr&amp;nbsp; &amp;nbsp;o&amp;nbsp; upTripper" style="html=1;shadow=0;dashed=0;fillColor=#F8F9FA;strokeColor=none;fontSize=16;fontColor=#181819;align=left;spacing=15;" parent="1" vertex="1">
          <mxGeometry x="80" y="120" width="370" height="50" as="geometry" />
        </mxCell>
        <mxCell id="GwVYzrCeqbtHM0dImgiu-3" value="Username" style="fillColor=none;strokeColor=none;fontSize=14;fontColor=#7C7C7D;align=center;" parent="GwVYzrCeqbtHM0dImgiu-2" vertex="1">
          <mxGeometry width="50" height="40" relative="1" as="geometry">
            <mxPoint x="300" y="5" as="offset" />
          </mxGeometry>
        </mxCell>
        <mxCell id="GwVYzrCeqbtHM0dImgiu-4" value="" style="html=1;verticalLabelPosition=bottom;align=center;labelBackgroundColor=#ffffff;verticalAlign=top;strokeWidth=2;strokeColor=#0080F0;shadow=0;dashed=0;shape=mxgraph.ios7.icons.location;" parent="GwVYzrCeqbtHM0dImgiu-2" vertex="1">
          <mxGeometry x="30" y="10.158333333333335" width="28.24" height="29.683333333333334" as="geometry" />
        </mxCell>
        <mxCell id="GwVYzrCeqbtHM0dImgiu-5" value="" style="html=1;verticalLabelPosition=bottom;align=center;labelBackgroundColor=#ffffff;verticalAlign=top;strokeWidth=2;strokeColor=#0080F0;shadow=0;dashed=0;shape=mxgraph.ios7.icons.user;" parent="GwVYzrCeqbtHM0dImgiu-2" vertex="1">
          <mxGeometry x="260" y="10.153333333333334" width="30" height="29.683333333333334" as="geometry" />
        </mxCell>
        <mxCell id="GwVYzrCeqbtHM0dImgiu-10" value="&amp;nbsp; &amp;nbsp; &amp;nbsp; &amp;nbsp; &amp;nbsp; &amp;nbsp; &amp;nbsp; &amp;nbsp; &amp;nbsp; &amp;nbsp; &amp;nbsp; &amp;nbsp; &amp;nbsp; &amp;nbsp; &amp;nbsp;Yes" style="html=1;shadow=0;dashed=0;shape=mxgraph.bootstrap.rrect;rSize=5;strokeColor=#CED4DA;html=1;whiteSpace=wrap;fillColor=#FFFFFF;fontColor=#7D868C;align=left;spacingLeft=80;spacing=15;fontSize=14;" parent="1" vertex="1">
          <mxGeometry x="90" y="300" width="300" height="60" as="geometry" />
        </mxCell>
        <mxCell id="GwVYzrCeqbtHM0dImgiu-11" value="" style="shape=triangle;direction=south;fillColor=#343A40;strokeColor=none;perimeter=none;" parent="GwVYzrCeqbtHM0dImgiu-10" vertex="1">
          <mxGeometry x="1" y="0.5" width="7" height="3" relative="1" as="geometry">
            <mxPoint x="-17" y="1" as="offset" />
          </mxGeometry>
        </mxCell>
        <mxCell id="GwVYzrCeqbtHM0dImgiu-12" value="" style="shape=triangle;direction=north;fillColor=#343A40;strokeColor=none;perimeter=none;" parent="GwVYzrCeqbtHM0dImgiu-10" vertex="1">
          <mxGeometry x="1" y="0.5" width="7" height="3" relative="1" as="geometry">
            <mxPoint x="-17" y="-4" as="offset" />
          </mxGeometry>
        </mxCell>
        <mxCell id="GwVYzrCeqbtHM0dImgiu-13" value="Have all participants already agreed on the dates?" style="html=1;shadow=0;dashed=0;shape=mxgraph.bootstrap.leftButton;strokeColor=#6C757D;gradientColor=inherit;fontColor=inherit;fillColor=#ffffff;rSize=5;perimeter=none;whiteSpace=wrap;resizeHeight=1;fontSize=14;align=left;spacing=15;" parent="GwVYzrCeqbtHM0dImgiu-10" vertex="1">
          <mxGeometry width="190" height="60" relative="1" as="geometry" />
        </mxCell>
        <mxCell id="GwVYzrCeqbtHM0dImgiu-24" value="" style="endArrow=classic;html=1;rounded=0;entryX=-0.02;entryY=0.424;entryDx=0;entryDy=0;entryPerimeter=0;" parent="1" source="GwVYzrCeqbtHM0dImgiu-18" target="GwVYzrCeqbtHM0dImgiu-19" edge="1">
          <mxGeometry width="50" height="50" relative="1" as="geometry">
            <mxPoint x="440" y="237" as="sourcePoint" />
            <mxPoint x="490" y="187" as="targetPoint" />
          </mxGeometry>
        </mxCell>
        <mxCell id="GwVYzrCeqbtHM0dImgiu-25" value="opens modal" style="edgeLabel;html=1;align=center;verticalAlign=middle;resizable=0;points=[];" parent="GwVYzrCeqbtHM0dImgiu-24" vertex="1" connectable="0">
          <mxGeometry x="0.4274" relative="1" as="geometry">
            <mxPoint x="-12" y="9" as="offset" />
          </mxGeometry>
        </mxCell>
        <mxCell id="GwVYzrCeqbtHM0dImgiu-80" value="" style="strokeWidth=1;shadow=0;dashed=0;align=center;html=1;shape=mxgraph.mockup.forms.rrect;rSize=5;strokeColor=#999999;fillColor=#ffffff;" parent="1" vertex="1">
          <mxGeometry x="605" y="362.5" width="160" height="175" as="geometry" />
        </mxCell>
        <mxCell id="GwVYzrCeqbtHM0dImgiu-81" value="October 2014" style="strokeWidth=1;shadow=0;dashed=0;align=center;html=1;shape=mxgraph.mockup.forms.anchor;fontColor=#999999;" parent="GwVYzrCeqbtHM0dImgiu-80" vertex="1">
          <mxGeometry x="30" y="8" width="100" height="20" as="geometry" />
        </mxCell>
        <mxCell id="GwVYzrCeqbtHM0dImgiu-82" value="&lt;" style="strokeWidth=1;shadow=0;dashed=0;align=center;html=1;shape=mxgraph.mockup.forms.rrect;rSize=4;strokeColor=#999999;fontColor=#008cff;fontSize=19;fontStyle=1;" parent="GwVYzrCeqbtHM0dImgiu-80" vertex="1">
          <mxGeometry x="8" y="8" width="25" height="20" as="geometry" />
        </mxCell>
        <mxCell id="GwVYzrCeqbtHM0dImgiu-83" value="&gt;" style="strokeWidth=1;shadow=0;dashed=0;align=center;html=1;shape=mxgraph.mockup.forms.rrect;rSize=4;strokeColor=#999999;fontColor=#008cff;fontSize=19;fontStyle=1;" parent="GwVYzrCeqbtHM0dImgiu-80" vertex="1">
          <mxGeometry x="127" y="8" width="25" height="20" as="geometry" />
        </mxCell>
        <mxCell id="GwVYzrCeqbtHM0dImgiu-84" value="Mo" style="strokeWidth=1;shadow=0;dashed=0;align=center;html=1;shape=mxgraph.mockup.forms.anchor;fontColor=#999999;" parent="GwVYzrCeqbtHM0dImgiu-80" vertex="1">
          <mxGeometry x="10" y="28" width="20" height="20" as="geometry" />
        </mxCell>
        <mxCell id="GwVYzrCeqbtHM0dImgiu-85" value="Tu" style="strokeWidth=1;shadow=0;dashed=0;align=center;html=1;shape=mxgraph.mockup.forms.anchor;fontColor=#999999;" parent="GwVYzrCeqbtHM0dImgiu-80" vertex="1">
          <mxGeometry x="30" y="28" width="20" height="20" as="geometry" />
        </mxCell>
        <mxCell id="GwVYzrCeqbtHM0dImgiu-86" value="We" style="strokeWidth=1;shadow=0;dashed=0;align=center;html=1;shape=mxgraph.mockup.forms.anchor;fontColor=#999999;" parent="GwVYzrCeqbtHM0dImgiu-80" vertex="1">
          <mxGeometry x="50" y="28" width="20" height="20" as="geometry" />
        </mxCell>
        <mxCell id="GwVYzrCeqbtHM0dImgiu-87" value="Th" style="strokeWidth=1;shadow=0;dashed=0;align=center;html=1;shape=mxgraph.mockup.forms.anchor;fontColor=#999999;" parent="GwVYzrCeqbtHM0dImgiu-80" vertex="1">
          <mxGeometry x="70" y="28" width="20" height="20" as="geometry" />
        </mxCell>
        <mxCell id="GwVYzrCeqbtHM0dImgiu-88" value="Fr" style="strokeWidth=1;shadow=0;dashed=0;align=center;html=1;shape=mxgraph.mockup.forms.anchor;fontColor=#999999;" parent="GwVYzrCeqbtHM0dImgiu-80" vertex="1">
          <mxGeometry x="90" y="28" width="20" height="20" as="geometry" />
        </mxCell>
        <mxCell id="GwVYzrCeqbtHM0dImgiu-89" value="Sa" style="strokeWidth=1;shadow=0;dashed=0;align=center;html=1;shape=mxgraph.mockup.forms.anchor;fontColor=#999999;" parent="GwVYzrCeqbtHM0dImgiu-80" vertex="1">
          <mxGeometry x="110" y="28" width="20" height="20" as="geometry" />
        </mxCell>
        <mxCell id="GwVYzrCeqbtHM0dImgiu-90" value="Su" style="strokeWidth=1;shadow=0;dashed=0;align=center;html=1;shape=mxgraph.mockup.forms.anchor;fontColor=#999999;" parent="GwVYzrCeqbtHM0dImgiu-80" vertex="1">
          <mxGeometry x="130" y="28" width="20" height="20" as="geometry" />
        </mxCell>
        <mxCell id="GwVYzrCeqbtHM0dImgiu-91" value="1" style="strokeWidth=1;shadow=0;dashed=0;align=center;html=1;shape=mxgraph.mockup.forms.rrect;rSize=0;strokeColor=#999999;fontColor=#999999;" parent="GwVYzrCeqbtHM0dImgiu-80" vertex="1">
          <mxGeometry x="10" y="48" width="20" height="20" as="geometry" />
        </mxCell>
        <mxCell id="GwVYzrCeqbtHM0dImgiu-92" value="2" style="strokeWidth=1;shadow=0;dashed=0;align=center;html=1;shape=mxgraph.mockup.forms.rrect;rSize=0;strokeColor=#999999;fontColor=#999999;" parent="GwVYzrCeqbtHM0dImgiu-80" vertex="1">
          <mxGeometry x="30" y="48" width="20" height="20" as="geometry" />
        </mxCell>
        <mxCell id="GwVYzrCeqbtHM0dImgiu-93" value="3" style="strokeWidth=1;shadow=0;dashed=0;align=center;html=1;shape=mxgraph.mockup.forms.rrect;rSize=0;strokeColor=#999999;fontColor=#999999;" parent="GwVYzrCeqbtHM0dImgiu-80" vertex="1">
          <mxGeometry x="50" y="48" width="20" height="20" as="geometry" />
        </mxCell>
        <mxCell id="GwVYzrCeqbtHM0dImgiu-94" value="4" style="strokeWidth=1;shadow=0;dashed=0;align=center;html=1;shape=mxgraph.mockup.forms.rrect;rSize=0;strokeColor=#999999;fontColor=#999999;" parent="GwVYzrCeqbtHM0dImgiu-80" vertex="1">
          <mxGeometry x="70" y="48" width="20" height="20" as="geometry" />
        </mxCell>
        <mxCell id="GwVYzrCeqbtHM0dImgiu-95" value="5" style="strokeWidth=1;shadow=0;dashed=0;align=center;html=1;shape=mxgraph.mockup.forms.rrect;rSize=0;strokeColor=#999999;fontColor=#999999;" parent="GwVYzrCeqbtHM0dImgiu-80" vertex="1">
          <mxGeometry x="90" y="48" width="20" height="20" as="geometry" />
        </mxCell>
        <mxCell id="GwVYzrCeqbtHM0dImgiu-96" value="6" style="strokeWidth=1;shadow=0;dashed=0;align=center;html=1;shape=mxgraph.mockup.forms.rrect;rSize=0;strokeColor=#999999;fontColor=#999999;" parent="GwVYzrCeqbtHM0dImgiu-80" vertex="1">
          <mxGeometry x="110" y="48" width="20" height="20" as="geometry" />
        </mxCell>
        <mxCell id="GwVYzrCeqbtHM0dImgiu-97" value="7" style="strokeWidth=1;shadow=0;dashed=0;align=center;html=1;shape=mxgraph.mockup.forms.rrect;rSize=0;strokeColor=#999999;fontColor=#999999;" parent="GwVYzrCeqbtHM0dImgiu-80" vertex="1">
          <mxGeometry x="130" y="48" width="20" height="20" as="geometry" />
        </mxCell>
        <mxCell id="GwVYzrCeqbtHM0dImgiu-98" value="8" style="strokeWidth=1;shadow=0;dashed=0;align=center;html=1;shape=mxgraph.mockup.forms.rrect;rSize=0;strokeColor=#999999;fontColor=#999999;" parent="GwVYzrCeqbtHM0dImgiu-80" vertex="1">
          <mxGeometry x="10" y="68" width="20" height="20" as="geometry" />
        </mxCell>
        <mxCell id="GwVYzrCeqbtHM0dImgiu-99" value="9" style="strokeWidth=1;shadow=0;dashed=0;align=center;html=1;shape=mxgraph.mockup.forms.rrect;rSize=0;strokeColor=#999999;fontColor=#999999;" parent="GwVYzrCeqbtHM0dImgiu-80" vertex="1">
          <mxGeometry x="30" y="68" width="20" height="20" as="geometry" />
        </mxCell>
        <mxCell id="GwVYzrCeqbtHM0dImgiu-100" value="10" style="strokeWidth=1;shadow=0;dashed=0;align=center;html=1;shape=mxgraph.mockup.forms.rrect;rSize=0;strokeColor=#999999;fontColor=#999999;" parent="GwVYzrCeqbtHM0dImgiu-80" vertex="1">
          <mxGeometry x="50" y="68" width="20" height="20" as="geometry" />
        </mxCell>
        <mxCell id="GwVYzrCeqbtHM0dImgiu-101" value="11" style="strokeWidth=1;shadow=0;dashed=0;align=center;html=1;shape=mxgraph.mockup.forms.rrect;rSize=0;strokeColor=#999999;fontColor=#999999;" parent="GwVYzrCeqbtHM0dImgiu-80" vertex="1">
          <mxGeometry x="70" y="68" width="20" height="20" as="geometry" />
        </mxCell>
        <mxCell id="GwVYzrCeqbtHM0dImgiu-102" value="12" style="strokeWidth=1;shadow=0;dashed=0;align=center;html=1;shape=mxgraph.mockup.forms.rrect;rSize=0;strokeColor=#999999;fontColor=#999999;" parent="GwVYzrCeqbtHM0dImgiu-80" vertex="1">
          <mxGeometry x="90" y="68" width="20" height="20" as="geometry" />
        </mxCell>
        <mxCell id="GwVYzrCeqbtHM0dImgiu-103" value="13" style="strokeWidth=1;shadow=0;dashed=0;align=center;html=1;shape=mxgraph.mockup.forms.rrect;rSize=0;strokeColor=#999999;fontColor=#999999;" parent="GwVYzrCeqbtHM0dImgiu-80" vertex="1">
          <mxGeometry x="110" y="68" width="20" height="20" as="geometry" />
        </mxCell>
        <mxCell id="GwVYzrCeqbtHM0dImgiu-104" value="14" style="strokeWidth=1;shadow=0;dashed=0;align=center;html=1;shape=mxgraph.mockup.forms.rrect;rSize=0;strokeColor=#999999;fontColor=#999999;" parent="GwVYzrCeqbtHM0dImgiu-80" vertex="1">
          <mxGeometry x="130" y="68" width="20" height="20" as="geometry" />
        </mxCell>
        <mxCell id="GwVYzrCeqbtHM0dImgiu-105" value="15" style="strokeWidth=1;shadow=0;dashed=0;align=center;html=1;shape=mxgraph.mockup.forms.rrect;rSize=0;strokeColor=#999999;fontColor=#999999;" parent="GwVYzrCeqbtHM0dImgiu-80" vertex="1">
          <mxGeometry x="10" y="88" width="20" height="20" as="geometry" />
        </mxCell>
        <mxCell id="GwVYzrCeqbtHM0dImgiu-106" value="16" style="strokeWidth=1;shadow=0;dashed=0;align=center;html=1;shape=mxgraph.mockup.forms.rrect;rSize=0;strokeColor=#999999;fontColor=#999999;" parent="GwVYzrCeqbtHM0dImgiu-80" vertex="1">
          <mxGeometry x="30" y="88" width="20" height="20" as="geometry" />
        </mxCell>
        <mxCell id="GwVYzrCeqbtHM0dImgiu-107" value="17" style="strokeWidth=1;shadow=0;dashed=0;align=center;html=1;shape=mxgraph.mockup.forms.rrect;rSize=0;strokeColor=#999999;fontColor=#999999;" parent="GwVYzrCeqbtHM0dImgiu-80" vertex="1">
          <mxGeometry x="50" y="88" width="20" height="20" as="geometry" />
        </mxCell>
        <mxCell id="GwVYzrCeqbtHM0dImgiu-108" value="18" style="strokeWidth=1;shadow=0;dashed=0;align=center;html=1;shape=mxgraph.mockup.forms.rrect;rSize=0;strokeColor=#999999;fontColor=#999999;" parent="GwVYzrCeqbtHM0dImgiu-80" vertex="1">
          <mxGeometry x="70" y="88" width="20" height="20" as="geometry" />
        </mxCell>
        <mxCell id="GwVYzrCeqbtHM0dImgiu-109" value="19" style="strokeWidth=1;shadow=0;dashed=0;align=center;html=1;shape=mxgraph.mockup.forms.rrect;rSize=0;strokeColor=#999999;fontColor=#999999;" parent="GwVYzrCeqbtHM0dImgiu-80" vertex="1">
          <mxGeometry x="90" y="88" width="20" height="20" as="geometry" />
        </mxCell>
        <mxCell id="GwVYzrCeqbtHM0dImgiu-110" value="20" style="strokeWidth=1;shadow=0;dashed=0;align=center;html=1;shape=mxgraph.mockup.forms.rrect;rSize=0;strokeColor=#999999;fontColor=#999999;" parent="GwVYzrCeqbtHM0dImgiu-80" vertex="1">
          <mxGeometry x="110" y="88" width="20" height="20" as="geometry" />
        </mxCell>
        <mxCell id="GwVYzrCeqbtHM0dImgiu-111" value="21" style="strokeWidth=1;shadow=0;dashed=0;align=center;html=1;shape=mxgraph.mockup.forms.rrect;rSize=0;strokeColor=#999999;fontColor=#999999;" parent="GwVYzrCeqbtHM0dImgiu-80" vertex="1">
          <mxGeometry x="130" y="88" width="20" height="20" as="geometry" />
        </mxCell>
        <mxCell id="GwVYzrCeqbtHM0dImgiu-112" value="22" style="strokeWidth=1;shadow=0;dashed=0;align=center;html=1;shape=mxgraph.mockup.forms.rrect;rSize=0;strokeColor=#999999;fontColor=#999999;" parent="GwVYzrCeqbtHM0dImgiu-80" vertex="1">
          <mxGeometry x="10" y="108" width="20" height="20" as="geometry" />
        </mxCell>
        <mxCell id="GwVYzrCeqbtHM0dImgiu-113" value="23" style="strokeWidth=1;shadow=0;dashed=0;align=center;html=1;shape=mxgraph.mockup.forms.rrect;rSize=0;strokeColor=#999999;fontColor=#999999;" parent="GwVYzrCeqbtHM0dImgiu-80" vertex="1">
          <mxGeometry x="30" y="108" width="20" height="20" as="geometry" />
        </mxCell>
        <mxCell id="GwVYzrCeqbtHM0dImgiu-114" value="25" style="strokeWidth=1;shadow=0;dashed=0;align=center;html=1;shape=mxgraph.mockup.forms.rrect;rSize=0;strokeColor=#999999;fontColor=#999999;" parent="GwVYzrCeqbtHM0dImgiu-80" vertex="1">
          <mxGeometry x="70" y="108" width="20" height="20" as="geometry" />
        </mxCell>
        <mxCell id="GwVYzrCeqbtHM0dImgiu-115" value="26" style="strokeWidth=1;shadow=0;dashed=0;align=center;html=1;shape=mxgraph.mockup.forms.rrect;rSize=0;strokeColor=#999999;fontColor=#999999;" parent="GwVYzrCeqbtHM0dImgiu-80" vertex="1">
          <mxGeometry x="90" y="108" width="20" height="20" as="geometry" />
        </mxCell>
        <mxCell id="GwVYzrCeqbtHM0dImgiu-116" value="27" style="strokeWidth=1;shadow=0;dashed=0;align=center;html=1;shape=mxgraph.mockup.forms.rrect;rSize=0;strokeColor=#999999;fontColor=#999999;" parent="GwVYzrCeqbtHM0dImgiu-80" vertex="1">
          <mxGeometry x="110" y="108" width="20" height="20" as="geometry" />
        </mxCell>
        <mxCell id="GwVYzrCeqbtHM0dImgiu-117" value="28" style="strokeWidth=1;shadow=0;dashed=0;align=center;html=1;shape=mxgraph.mockup.forms.rrect;rSize=0;strokeColor=#999999;fontColor=#999999;" parent="GwVYzrCeqbtHM0dImgiu-80" vertex="1">
          <mxGeometry x="130" y="108" width="20" height="20" as="geometry" />
        </mxCell>
        <mxCell id="GwVYzrCeqbtHM0dImgiu-118" value="29" style="strokeWidth=1;shadow=0;dashed=0;align=center;html=1;shape=mxgraph.mockup.forms.rrect;rSize=0;strokeColor=#999999;fontColor=#999999;" parent="GwVYzrCeqbtHM0dImgiu-80" vertex="1">
          <mxGeometry x="10" y="128" width="20" height="20" as="geometry" />
        </mxCell>
        <mxCell id="GwVYzrCeqbtHM0dImgiu-119" value="30" style="strokeWidth=1;shadow=0;dashed=0;align=center;html=1;shape=mxgraph.mockup.forms.rrect;rSize=0;strokeColor=#999999;fontColor=#999999;" parent="GwVYzrCeqbtHM0dImgiu-80" vertex="1">
          <mxGeometry x="30" y="128" width="20" height="20" as="geometry" />
        </mxCell>
        <mxCell id="GwVYzrCeqbtHM0dImgiu-120" value="31" style="strokeWidth=1;shadow=0;dashed=0;align=center;html=1;shape=mxgraph.mockup.forms.rrect;rSize=0;strokeColor=#999999;fontColor=#999999;" parent="GwVYzrCeqbtHM0dImgiu-80" vertex="1">
          <mxGeometry x="50" y="128" width="20" height="20" as="geometry" />
        </mxCell>
        <mxCell id="GwVYzrCeqbtHM0dImgiu-121" value="1" style="strokeWidth=1;shadow=0;dashed=0;align=center;html=1;shape=mxgraph.mockup.forms.rrect;rSize=0;strokeColor=#999999;fontColor=#999999;fillColor=#ddeeff;" parent="GwVYzrCeqbtHM0dImgiu-80" vertex="1">
          <mxGeometry x="70" y="128" width="20" height="20" as="geometry" />
        </mxCell>
        <mxCell id="GwVYzrCeqbtHM0dImgiu-122" value="2" style="strokeWidth=1;shadow=0;dashed=0;align=center;html=1;shape=mxgraph.mockup.forms.rrect;rSize=0;strokeColor=#999999;fontColor=#999999;fillColor=#ddeeff;" parent="GwVYzrCeqbtHM0dImgiu-80" vertex="1">
          <mxGeometry x="90" y="128" width="20" height="20" as="geometry" />
        </mxCell>
        <mxCell id="GwVYzrCeqbtHM0dImgiu-123" value="3" style="strokeWidth=1;shadow=0;dashed=0;align=center;html=1;shape=mxgraph.mockup.forms.rrect;rSize=0;strokeColor=#999999;fontColor=#999999;fillColor=#ddeeff;" parent="GwVYzrCeqbtHM0dImgiu-80" vertex="1">
          <mxGeometry x="110" y="128" width="20" height="20" as="geometry" />
        </mxCell>
        <mxCell id="GwVYzrCeqbtHM0dImgiu-124" value="4" style="strokeWidth=1;shadow=0;dashed=0;align=center;html=1;shape=mxgraph.mockup.forms.rrect;rSize=0;strokeColor=#999999;fontColor=#999999;fillColor=#ddeeff;" parent="GwVYzrCeqbtHM0dImgiu-80" vertex="1">
          <mxGeometry x="130" y="128" width="20" height="20" as="geometry" />
        </mxCell>
        <mxCell id="GwVYzrCeqbtHM0dImgiu-125" value="5" style="strokeWidth=1;shadow=0;dashed=0;align=center;html=1;shape=mxgraph.mockup.forms.rrect;rSize=0;strokeColor=#999999;fontColor=#999999;fillColor=#ddeeff;" parent="GwVYzrCeqbtHM0dImgiu-80" vertex="1">
          <mxGeometry x="10" y="148" width="20" height="20" as="geometry" />
        </mxCell>
        <mxCell id="GwVYzrCeqbtHM0dImgiu-126" value="6" style="strokeWidth=1;shadow=0;dashed=0;align=center;html=1;shape=mxgraph.mockup.forms.rrect;rSize=0;strokeColor=#999999;fontColor=#999999;fillColor=#ddeeff;" parent="GwVYzrCeqbtHM0dImgiu-80" vertex="1">
          <mxGeometry x="30" y="148" width="20" height="20" as="geometry" />
        </mxCell>
        <mxCell id="GwVYzrCeqbtHM0dImgiu-127" value="7" style="strokeWidth=1;shadow=0;dashed=0;align=center;html=1;shape=mxgraph.mockup.forms.rrect;rSize=0;strokeColor=#999999;fontColor=#999999;fillColor=#ddeeff;" parent="GwVYzrCeqbtHM0dImgiu-80" vertex="1">
          <mxGeometry x="50" y="148" width="20" height="20" as="geometry" />
        </mxCell>
        <mxCell id="GwVYzrCeqbtHM0dImgiu-128" value="8" style="strokeWidth=1;shadow=0;dashed=0;align=center;html=1;shape=mxgraph.mockup.forms.rrect;rSize=0;strokeColor=#999999;fontColor=#999999;fillColor=#ddeeff;" parent="GwVYzrCeqbtHM0dImgiu-80" vertex="1">
          <mxGeometry x="70" y="148" width="20" height="20" as="geometry" />
        </mxCell>
        <mxCell id="GwVYzrCeqbtHM0dImgiu-129" value="9" style="strokeWidth=1;shadow=0;dashed=0;align=center;html=1;shape=mxgraph.mockup.forms.rrect;rSize=0;strokeColor=#999999;fontColor=#999999;fillColor=#ddeeff;" parent="GwVYzrCeqbtHM0dImgiu-80" vertex="1">
          <mxGeometry x="90" y="148" width="20" height="20" as="geometry" />
        </mxCell>
        <mxCell id="GwVYzrCeqbtHM0dImgiu-130" value="10" style="strokeWidth=1;shadow=0;dashed=0;align=center;html=1;shape=mxgraph.mockup.forms.rrect;rSize=0;strokeColor=#999999;fontColor=#999999;fillColor=#ddeeff;" parent="GwVYzrCeqbtHM0dImgiu-80" vertex="1">
          <mxGeometry x="110" y="148" width="20" height="20" as="geometry" />
        </mxCell>
        <mxCell id="GwVYzrCeqbtHM0dImgiu-131" value="11" style="strokeWidth=1;shadow=0;dashed=0;align=center;html=1;shape=mxgraph.mockup.forms.rrect;rSize=0;strokeColor=#999999;fontColor=#999999;fillColor=#ddeeff;" parent="GwVYzrCeqbtHM0dImgiu-80" vertex="1">
          <mxGeometry x="130" y="148" width="20" height="20" as="geometry" />
        </mxCell>
        <mxCell id="GwVYzrCeqbtHM0dImgiu-132" value="24" style="strokeWidth=1;shadow=0;dashed=0;align=center;html=1;shape=mxgraph.mockup.forms.rrect;rSize=0;strokeColor=#ff0000;fontColor=#ffffff;strokeWidth=2;fillColor=#008cff;" parent="GwVYzrCeqbtHM0dImgiu-80" vertex="1">
          <mxGeometry x="50" y="108" width="20" height="20" as="geometry" />
        </mxCell>
        <mxCell id="GwVYzrCeqbtHM0dImgiu-138" value="&amp;nbsp; &amp;nbsp; &amp;nbsp; &amp;nbsp; &amp;nbsp; &amp;nbsp; &amp;nbsp; &amp;nbsp; &amp;nbsp; &amp;nbsp; &amp;nbsp; &amp;nbsp; &amp;nbsp; &amp;nbsp; &amp;nbsp;No date selected" style="html=1;shadow=0;dashed=0;shape=mxgraph.bootstrap.rrect;rSize=5;strokeColor=#CED4DA;html=1;whiteSpace=wrap;fillColor=#FFFFFF;fontColor=#7D868C;align=left;spacingLeft=80;spacing=15;fontSize=14;" parent="1" vertex="1">
          <mxGeometry x="90" y="370" width="350" height="40" as="geometry" />
        </mxCell>
        <mxCell id="GwVYzrCeqbtHM0dImgiu-141" value="Select start date" style="html=1;shadow=0;dashed=0;shape=mxgraph.bootstrap.leftButton;strokeColor=#6C757D;gradientColor=inherit;fontColor=inherit;fillColor=#ffffff;rSize=5;perimeter=none;whiteSpace=wrap;resizeHeight=1;fontSize=14;align=left;spacing=15;" parent="GwVYzrCeqbtHM0dImgiu-138" vertex="1">
          <mxGeometry width="190" height="40" relative="1" as="geometry" />
        </mxCell>
        <mxCell id="GwVYzrCeqbtHM0dImgiu-136" value="" style="html=1;dashed=0;aspect=fixed;verticalLabelPosition=bottom;verticalAlign=top;align=center;shape=mxgraph.gmdl.calendar;strokeColor=none;fillColor=#737373;shadow=0;sketch=0;" parent="GwVYzrCeqbtHM0dImgiu-138" vertex="1">
          <mxGeometry x="325" y="10" width="20" height="20" as="geometry" />
        </mxCell>
        <mxCell id="GwVYzrCeqbtHM0dImgiu-142" value="&amp;nbsp; &amp;nbsp; &amp;nbsp; &amp;nbsp; &amp;nbsp; &amp;nbsp; &amp;nbsp; &amp;nbsp; &amp;nbsp; &amp;nbsp; &amp;nbsp; &amp;nbsp; &amp;nbsp; &amp;nbsp; &amp;nbsp;No date selected" style="html=1;shadow=0;dashed=0;shape=mxgraph.bootstrap.rrect;rSize=5;strokeColor=#CED4DA;html=1;whiteSpace=wrap;fillColor=#FFFFFF;fontColor=#7D868C;align=left;spacingLeft=80;spacing=15;fontSize=14;" parent="1" vertex="1">
          <mxGeometry x="90" y="420" width="350" height="40" as="geometry" />
        </mxCell>
        <mxCell id="GwVYzrCeqbtHM0dImgiu-143" value="Select end date" style="html=1;shadow=0;dashed=0;shape=mxgraph.bootstrap.leftButton;strokeColor=#6C757D;gradientColor=inherit;fontColor=inherit;fillColor=#ffffff;rSize=5;perimeter=none;whiteSpace=wrap;resizeHeight=1;fontSize=14;align=left;spacing=15;" parent="GwVYzrCeqbtHM0dImgiu-142" vertex="1">
          <mxGeometry width="190" height="40" relative="1" as="geometry" />
        </mxCell>
        <mxCell id="GwVYzrCeqbtHM0dImgiu-144" value="" style="html=1;dashed=0;aspect=fixed;verticalLabelPosition=bottom;verticalAlign=top;align=center;shape=mxgraph.gmdl.calendar;strokeColor=none;fillColor=#737373;shadow=0;sketch=0;" parent="GwVYzrCeqbtHM0dImgiu-142" vertex="1">
          <mxGeometry x="325" y="10" width="20" height="20" as="geometry" />
        </mxCell>
        <mxCell id="GwVYzrCeqbtHM0dImgiu-145" value="" style="endArrow=classic;html=1;rounded=0;entryX=-0.006;entryY=0.248;entryDx=0;entryDy=0;entryPerimeter=0;" parent="1" target="GwVYzrCeqbtHM0dImgiu-80" edge="1">
          <mxGeometry width="50" height="50" relative="1" as="geometry">
            <mxPoint x="425" y="390" as="sourcePoint" />
            <mxPoint x="475" y="340" as="targetPoint" />
          </mxGeometry>
        </mxCell>
        <mxCell id="GwVYzrCeqbtHM0dImgiu-146" value="opens modal with calendar" style="edgeLabel;html=1;align=center;verticalAlign=middle;resizable=0;points=[];" parent="GwVYzrCeqbtHM0dImgiu-145" vertex="1" connectable="0">
          <mxGeometry x="-0.3581" y="-2" relative="1" as="geometry">
            <mxPoint x="45" y="4" as="offset" />
          </mxGeometry>
        </mxCell>
        <mxCell id="GwVYzrCeqbtHM0dImgiu-150" value="" style="group" parent="1" vertex="1" connectable="0">
          <mxGeometry x="130" y="470" width="270" height="67.5" as="geometry" />
        </mxCell>
        <mxCell id="GwVYzrCeqbtHM0dImgiu-149" value="" style="rounded=0;whiteSpace=wrap;html=1;dashed=1;" parent="GwVYzrCeqbtHM0dImgiu-150" vertex="1">
          <mxGeometry width="270" height="67.5" as="geometry" />
        </mxCell>
        <mxCell id="GwVYzrCeqbtHM0dImgiu-148" value="Add more dates when you&#39;re available" style="text;html=1;strokeColor=none;fillColor=none;align=center;verticalAlign=middle;whiteSpace=wrap;rounded=0;" parent="GwVYzrCeqbtHM0dImgiu-150" vertex="1">
          <mxGeometry x="20" y="10" width="230" height="30" as="geometry" />
        </mxCell>
        <mxCell id="GwVYzrCeqbtHM0dImgiu-147" value="" style="html=1;verticalLabelPosition=bottom;align=center;labelBackgroundColor=#ffffff;verticalAlign=top;strokeWidth=2;strokeColor=#0080F0;shadow=0;dashed=0;shape=mxgraph.ios7.icons.add;" parent="GwVYzrCeqbtHM0dImgiu-150" vertex="1">
          <mxGeometry x="120" y="37.5" width="30" height="30" as="geometry" />
        </mxCell>
        <mxCell id="GwVYzrCeqbtHM0dImgiu-151" value="" style="endArrow=classic;html=1;rounded=0;" parent="GwVYzrCeqbtHM0dImgiu-150" target="GwVYzrCeqbtHM0dImgiu-152" edge="1">
          <mxGeometry width="50" height="50" relative="1" as="geometry">
            <mxPoint x="230" y="67.5" as="sourcePoint" />
            <mxPoint x="380" y="120" as="targetPoint" />
          </mxGeometry>
        </mxCell>
        <mxCell id="GwVYzrCeqbtHM0dImgiu-167" style="edgeStyle=orthogonalEdgeStyle;rounded=0;orthogonalLoop=1;jettySize=auto;html=1;entryX=0.5;entryY=0;entryDx=0;entryDy=0;" parent="1" source="GwVYzrCeqbtHM0dImgiu-152" target="GwVYzrCeqbtHM0dImgiu-153" edge="1">
          <mxGeometry relative="1" as="geometry" />
        </mxCell>
        <mxCell id="GwVYzrCeqbtHM0dImgiu-152" value="only visible if user selects &#39;No&#39; in the drop-down menu &#39;Do you already know the dates of your trip?&#39;. Adds a div with additional dates. and possibility to add more dates. At least one pair of start and end dates must be specified." style="text;html=1;strokeColor=none;fillColor=none;align=center;verticalAlign=middle;whiteSpace=wrap;rounded=0;" parent="1" vertex="1">
          <mxGeometry x="490" y="550" width="260" height="80" as="geometry" />
        </mxCell>
        <mxCell id="GwVYzrCeqbtHM0dImgiu-160" value="" style="group" parent="1" vertex="1" connectable="0">
          <mxGeometry x="470" y="670" width="370" height="190" as="geometry" />
        </mxCell>
        <mxCell id="GwVYzrCeqbtHM0dImgiu-153" value="" style="rounded=0;whiteSpace=wrap;html=1;" parent="GwVYzrCeqbtHM0dImgiu-160" vertex="1">
          <mxGeometry width="370" height="190" as="geometry" />
        </mxCell>
        <mxCell id="GwVYzrCeqbtHM0dImgiu-161" value="" style="shape=image;html=1;verticalAlign=top;verticalLabelPosition=bottom;labelBackgroundColor=#ffffff;imageAspect=0;aspect=fixed;image=https://cdn4.iconfinder.com/data/icons/essentials-71/24/013_-_Trash-128.png" parent="GwVYzrCeqbtHM0dImgiu-160" vertex="1">
          <mxGeometry x="324.87804878048786" y="39.99692307692307" width="27.073170731707318" height="27.073170731707318" as="geometry" />
        </mxCell>
        <mxCell id="GwVYzrCeqbtHM0dImgiu-154" value="&amp;nbsp; &amp;nbsp; &amp;nbsp; &amp;nbsp; &amp;nbsp; &amp;nbsp; &amp;nbsp; &amp;nbsp; &amp;nbsp; &amp;nbsp; &amp;nbsp; &amp;nbsp; &amp;nbsp; &amp;nbsp; &amp;nbsp;No date selected" style="html=1;shadow=0;dashed=0;shape=mxgraph.bootstrap.rrect;rSize=5;strokeColor=#CED4DA;html=1;whiteSpace=wrap;fillColor=#FFFFFF;fontColor=#7D868C;align=left;spacingLeft=80;spacing=15;fontSize=14;" parent="GwVYzrCeqbtHM0dImgiu-160" vertex="1">
          <mxGeometry x="9.02439024390244" y="10" width="288.7804878048781" height="40.77" as="geometry" />
        </mxCell>
        <mxCell id="GwVYzrCeqbtHM0dImgiu-155" value="Select start date" style="html=1;shadow=0;dashed=0;shape=mxgraph.bootstrap.leftButton;strokeColor=#6C757D;gradientColor=inherit;fontColor=inherit;fillColor=#ffffff;rSize=5;perimeter=none;whiteSpace=wrap;resizeHeight=1;fontSize=14;align=left;spacing=15;" parent="GwVYzrCeqbtHM0dImgiu-154" vertex="1">
          <mxGeometry width="190" height="40.77" relative="1" as="geometry" />
        </mxCell>
        <mxCell id="GwVYzrCeqbtHM0dImgiu-156" value="" style="html=1;dashed=0;aspect=fixed;verticalLabelPosition=bottom;verticalAlign=top;align=center;shape=mxgraph.gmdl.calendar;strokeColor=none;fillColor=#737373;shadow=0;sketch=0;" parent="GwVYzrCeqbtHM0dImgiu-154" vertex="1">
          <mxGeometry x="268.1533101045296" y="10.1925" width="12.586887034659823" height="12.586887034659823" as="geometry" />
        </mxCell>
        <mxCell id="GwVYzrCeqbtHM0dImgiu-162" value="&amp;nbsp; &amp;nbsp; &amp;nbsp; &amp;nbsp; &amp;nbsp; &amp;nbsp; &amp;nbsp; &amp;nbsp; &amp;nbsp; &amp;nbsp; &amp;nbsp; &amp;nbsp; &amp;nbsp; &amp;nbsp; &amp;nbsp;No date selected" style="html=1;shadow=0;dashed=0;shape=mxgraph.bootstrap.rrect;rSize=5;strokeColor=#CED4DA;html=1;whiteSpace=wrap;fillColor=#FFFFFF;fontColor=#7D868C;align=left;spacingLeft=80;spacing=15;fontSize=14;" parent="GwVYzrCeqbtHM0dImgiu-160" vertex="1">
          <mxGeometry x="9.02439024390244" y="62.309999999999945" width="288.7804878048781" height="40.77" as="geometry" />
        </mxCell>
        <mxCell id="GwVYzrCeqbtHM0dImgiu-163" value="Select end date" style="html=1;shadow=0;dashed=0;shape=mxgraph.bootstrap.leftButton;strokeColor=#6C757D;gradientColor=inherit;fontColor=inherit;fillColor=#ffffff;rSize=5;perimeter=none;whiteSpace=wrap;resizeHeight=1;fontSize=14;align=left;spacing=15;" parent="GwVYzrCeqbtHM0dImgiu-162" vertex="1">
          <mxGeometry width="190" height="40.77" relative="1" as="geometry" />
        </mxCell>
        <mxCell id="GwVYzrCeqbtHM0dImgiu-164" value="" style="html=1;dashed=0;aspect=fixed;verticalLabelPosition=bottom;verticalAlign=top;align=center;shape=mxgraph.gmdl.calendar;strokeColor=none;fillColor=#737373;shadow=0;sketch=0;" parent="GwVYzrCeqbtHM0dImgiu-162" vertex="1">
          <mxGeometry x="268.1533101045296" y="10.1925" width="12.586887034659823" height="12.586887034659823" as="geometry" />
        </mxCell>
        <mxCell id="GwVYzrCeqbtHM0dImgiu-165" value="Add more dates when you&#39;re available" style="text;html=1;strokeColor=none;fillColor=none;align=center;verticalAlign=middle;whiteSpace=wrap;rounded=0;" parent="GwVYzrCeqbtHM0dImgiu-160" vertex="1">
          <mxGeometry x="81.21951219512196" y="120" width="207.56097560975613" height="30" as="geometry" />
        </mxCell>
        <mxCell id="GwVYzrCeqbtHM0dImgiu-166" value="" style="html=1;verticalLabelPosition=bottom;align=center;labelBackgroundColor=#ffffff;verticalAlign=top;strokeWidth=2;strokeColor=#0080F0;shadow=0;dashed=0;shape=mxgraph.ios7.icons.add;" parent="GwVYzrCeqbtHM0dImgiu-160" vertex="1">
          <mxGeometry x="171.46341463414635" y="147.5" width="27.073170731707318" height="30" as="geometry" />
        </mxCell>
        <mxCell id="GwVYzrCeqbtHM0dImgiu-168" value="Choose..." style="html=1;shadow=0;dashed=0;shape=mxgraph.bootstrap.rrect;rSize=5;strokeColor=#CED4DA;html=1;whiteSpace=wrap;fillColor=#FFFFFF;fontColor=#7D868C;align=left;spacingLeft=80;spacing=15;fontSize=14;" parent="1" vertex="1">
          <mxGeometry x="90" y="590" width="350" height="40" as="geometry" />
        </mxCell>
        <mxCell id="GwVYzrCeqbtHM0dImgiu-169" value="" style="shape=triangle;direction=south;fillColor=#343A40;strokeColor=none;perimeter=none;" parent="GwVYzrCeqbtHM0dImgiu-168" vertex="1">
          <mxGeometry x="1" y="0.5" width="7" height="3" relative="1" as="geometry">
            <mxPoint x="-17" y="1" as="offset" />
          </mxGeometry>
        </mxCell>
        <mxCell id="GwVYzrCeqbtHM0dImgiu-170" value="" style="shape=triangle;direction=north;fillColor=#343A40;strokeColor=none;perimeter=none;" parent="GwVYzrCeqbtHM0dImgiu-168" vertex="1">
          <mxGeometry x="1" y="0.5" width="7" height="3" relative="1" as="geometry">
            <mxPoint x="-17" y="-4" as="offset" />
          </mxGeometry>
        </mxCell>
        <mxCell id="GwVYzrCeqbtHM0dImgiu-171" value="How many working days are you willing to travel?" style="html=1;shadow=0;dashed=0;shape=mxgraph.bootstrap.leftButton;strokeColor=#6C757D;gradientColor=inherit;fontColor=inherit;fillColor=#ffffff;rSize=5;perimeter=none;whiteSpace=wrap;resizeHeight=1;fontSize=14;align=left;spacing=15;" parent="GwVYzrCeqbtHM0dImgiu-168" vertex="1">
          <mxGeometry width="200" height="40" relative="1" as="geometry" />
        </mxCell>
        <mxCell id="GwVYzrCeqbtHM0dImgiu-172" value="1" style="text;html=1;strokeColor=none;fillColor=none;align=center;verticalAlign=middle;whiteSpace=wrap;rounded=0;" parent="GwVYzrCeqbtHM0dImgiu-168" vertex="1">
          <mxGeometry x="220" y="5" width="60" height="30" as="geometry" />
        </mxCell>
        <mxCell id="GwVYzrCeqbtHM0dImgiu-173" value="" style="group" parent="1" vertex="1" connectable="0">
          <mxGeometry x="90" y="180" width="360" height="40" as="geometry" />
        </mxCell>
        <mxCell id="GwVYzrCeqbtHM0dImgiu-7" value="" style="html=1;shadow=0;dashed=0;shape=mxgraph.bootstrap.rrect;rSize=5;strokeColor=#CED4DA;html=1;whiteSpace=wrap;fillColor=#FFFFFF;fontColor=#7D868C;align=left;spacing=15;spacingLeft=40;fontSize=14;" parent="GwVYzrCeqbtHM0dImgiu-173" vertex="1">
          <mxGeometry width="320" height="40" as="geometry" />
        </mxCell>
        <mxCell id="GwVYzrCeqbtHM0dImgiu-8" value="Title" style="html=1;shadow=0;dashed=0;shape=mxgraph.bootstrap.leftButton;strokeColor=inherit;gradientColor=inherit;fontColor=inherit;fillColor=#E9ECEF;rSize=5;perimeter=none;whiteSpace=wrap;resizeHeight=1;fontSize=14;" parent="GwVYzrCeqbtHM0dImgiu-7" vertex="1">
          <mxGeometry width="91.42857142857143" height="40" as="geometry" />
        </mxCell>
        <mxCell id="GwVYzrCeqbtHM0dImgiu-18" value="" style="sketch=0;pointerEvents=1;shadow=0;dashed=0;html=1;strokeColor=none;fillColor=#505050;labelPosition=center;verticalLabelPosition=bottom;verticalAlign=top;outlineConnect=0;align=center;shape=mxgraph.office.concepts.help;" parent="GwVYzrCeqbtHM0dImgiu-173" vertex="1">
          <mxGeometry x="330" y="5" width="30" height="30" as="geometry" />
        </mxCell>
        <mxCell id="GwVYzrCeqbtHM0dImgiu-174" value="&lt;b&gt;Dates&lt;/b&gt;" style="text;html=1;strokeColor=default;fillColor=none;align=center;verticalAlign=middle;whiteSpace=wrap;rounded=0;dashed=1;" parent="1" vertex="1">
          <mxGeometry x="90" y="250" width="350" height="30" as="geometry" />
        </mxCell>
        <mxCell id="GwVYzrCeqbtHM0dImgiu-198" value="Save" style="rounded=1;fillColor=#0057D8;strokeColor=none;html=1;whiteSpace=wrap;fontColor=#ffffff;align=center;verticalAlign=middle;fontStyle=0;fontSize=12;sketch=0;" parent="1" vertex="1">
          <mxGeometry x="274" y="670" width="86" height="33" as="geometry" />
        </mxCell>
        <mxCell id="GwVYzrCeqbtHM0dImgiu-199" value="Cancel" style="rounded=1;fillColor=#f5f5f5;strokeColor=#666666;html=1;whiteSpace=wrap;fontColor=#333333;align=center;verticalAlign=middle;fontStyle=0;fontSize=12;sketch=0;" parent="1" vertex="1">
          <mxGeometry x="160" y="670" width="86" height="33" as="geometry" />
        </mxCell>
        <mxCell id="GwVYzrCeqbtHM0dImgiu-313" value="" style="endArrow=classic;html=1;rounded=0;" parent="1" edge="1">
          <mxGeometry width="50" height="50" relative="1" as="geometry">
            <mxPoint x="430" y="630" as="sourcePoint" />
            <mxPoint x="480" y="580" as="targetPoint" />
          </mxGeometry>
        </mxCell>
        <mxCell id="GwVYzrCeqbtHM0dImgiu-327" style="edgeStyle=orthogonalEdgeStyle;rounded=0;orthogonalLoop=1;jettySize=auto;html=1;" parent="1" source="GwVYzrCeqbtHM0dImgiu-320" target="GwVYzrCeqbtHM0dImgiu-323" edge="1">
          <mxGeometry relative="1" as="geometry" />
        </mxCell>
        <mxCell id="GwVYzrCeqbtHM0dImgiu-328" value="open modal" style="edgeLabel;html=1;align=center;verticalAlign=middle;resizable=0;points=[];" parent="GwVYzrCeqbtHM0dImgiu-327" vertex="1" connectable="0">
          <mxGeometry x="0.2889" y="-3" relative="1" as="geometry">
            <mxPoint as="offset" />
          </mxGeometry>
        </mxCell>
        <mxCell id="GwVYzrCeqbtHM0dImgiu-320" value="" style="sketch=0;pointerEvents=1;shadow=0;dashed=0;html=1;strokeColor=none;fillColor=#505050;labelPosition=center;verticalLabelPosition=bottom;verticalAlign=top;outlineConnect=0;align=center;shape=mxgraph.office.concepts.help;" parent="1" vertex="1">
          <mxGeometry x="400" y="315" width="30" height="30" as="geometry" />
        </mxCell>
        <mxCell id="GwVYzrCeqbtHM0dImgiu-321" value="" style="group" parent="1" vertex="1" connectable="0">
          <mxGeometry x="510" y="60" width="235" height="120" as="geometry" />
        </mxCell>
        <mxCell id="GwVYzrCeqbtHM0dImgiu-19" value="This can be a generic title to identify your trip. For example: &quot;Summer holidays at the seaside with office folks&quot;" style="rounded=0;whiteSpace=wrap;html=1;" parent="GwVYzrCeqbtHM0dImgiu-321" vertex="1">
          <mxGeometry width="160" height="120" as="geometry" />
        </mxCell>
        <mxCell id="GwVYzrCeqbtHM0dImgiu-21" value="OK" style="rounded=1;fillColor=#0057D8;strokeColor=none;html=1;whiteSpace=wrap;fontColor=#ffffff;align=center;verticalAlign=middle;fontStyle=0;fontSize=12;sketch=0;" parent="GwVYzrCeqbtHM0dImgiu-321" vertex="1">
          <mxGeometry x="51" y="97" width="58" height="23" as="geometry" />
        </mxCell>
        <mxCell id="GwVYzrCeqbtHM0dImgiu-22" value="" style="endArrow=classic;html=1;rounded=0;" parent="GwVYzrCeqbtHM0dImgiu-321" target="GwVYzrCeqbtHM0dImgiu-23" edge="1">
          <mxGeometry width="50" height="50" relative="1" as="geometry">
            <mxPoint x="100" y="110" as="sourcePoint" />
            <mxPoint x="110" y="150" as="targetPoint" />
          </mxGeometry>
        </mxCell>
        <mxCell id="GwVYzrCeqbtHM0dImgiu-23" value="closes the modal" style="text;html=1;strokeColor=none;fillColor=none;align=center;verticalAlign=middle;whiteSpace=wrap;rounded=0;" parent="GwVYzrCeqbtHM0dImgiu-321" vertex="1">
          <mxGeometry x="175" y="90" width="60" height="30" as="geometry" />
        </mxCell>
        <mxCell id="GwVYzrCeqbtHM0dImgiu-322" value="" style="group" parent="1" vertex="1" connectable="0">
          <mxGeometry x="510" y="200" width="300" height="120" as="geometry" />
        </mxCell>
        <mxCell id="GwVYzrCeqbtHM0dImgiu-324" value="OK" style="rounded=1;fillColor=#0057D8;strokeColor=none;html=1;whiteSpace=wrap;fontColor=#ffffff;align=center;verticalAlign=middle;fontStyle=0;fontSize=12;sketch=0;" parent="GwVYzrCeqbtHM0dImgiu-322" vertex="1">
          <mxGeometry x="51" y="97" width="58" height="23" as="geometry" />
        </mxCell>
        <mxCell id="GwVYzrCeqbtHM0dImgiu-325" value="" style="endArrow=classic;html=1;rounded=0;" parent="GwVYzrCeqbtHM0dImgiu-322" target="GwVYzrCeqbtHM0dImgiu-326" edge="1">
          <mxGeometry width="50" height="50" relative="1" as="geometry">
            <mxPoint x="100" y="110" as="sourcePoint" />
            <mxPoint x="110" y="150" as="targetPoint" />
          </mxGeometry>
        </mxCell>
        <mxCell id="GwVYzrCeqbtHM0dImgiu-326" value="closes the modal" style="text;html=1;strokeColor=none;fillColor=none;align=center;verticalAlign=middle;whiteSpace=wrap;rounded=0;" parent="GwVYzrCeqbtHM0dImgiu-322" vertex="1">
          <mxGeometry x="175" y="90" width="60" height="30" as="geometry" />
        </mxCell>
        <mxCell id="GwVYzrCeqbtHM0dImgiu-323" value="If you select &#39;YES&#39;, participants will only be asked if they&#39;re ok with selected dates. If &#39;NO&#39; is selected, all participants will be asked their dates availabilities in order to find common availability" style="rounded=0;whiteSpace=wrap;html=1;" parent="1" vertex="1">
          <mxGeometry x="520" y="200" width="300" height="120" as="geometry" />
        </mxCell>
      </root>
    </mxGraphModel>
  </diagram>
</mxfile>
